<svg xmlns="http://www.w3.org/2000/svg" width="32" height="32" viewBox="0 0 32 32">
  <rect width="32" height="32" rx="6" fill="#0a0a0b"/>
  <g fill="#fff">
    <path d="M16 4c-4.4 0-8 3.6-8 8 0 3.5 2.3 6.5 5.5 7.6L16 26l2.5-6.4C21.7 18.5 24 15.5 24 12c0-4.4-3.6-8-8-8zm0 11c-1.7 0-3-1.3-3-3s1.3-3 3-3 3 1.3 3 3-1.3 3-3 3z" opacity="0.9"/>
    <rect x="15" y="11" width="2" height="8" rx="1"/>
    <rect x="12" y="13" width="2" height="5" rx="1"/>
    <rect x="18" y="13" width="2" height="5" rx="1"/>
  </g>
</svg>
