<?xml version="1.0" encoding="UTF-8" standalone="no"?>
<!DOCTYPE svg PUBLIC "-//W3C//DTD SVG 1.1//EN" "http://www.w3.org/Graphics/SVG/1.1/DTD/svg11.dtd">
<svg width="100%" height="100%" viewBox="0 0 1364 2000" version="1.1" xmlns="http://www.w3.org/2000/svg" xmlns:xlink="http://www.w3.org/1999/xlink" xml:space="preserve" xmlns:serif="http://www.serif.com/" style="fill-rule:evenodd;clip-rule:evenodd;stroke-linejoin:round;stroke-miterlimit:2;">
    <g transform="matrix(1,0,0,1,-318.147958,-0)">
        <g transform="matrix(0.880989,0,0,0.880989,-881.837088,-811.94114)">
            <g transform="matrix(4.166667,0,0,4.166667,0,0)">
                <path d="M368.17,520.7C366.91,520.624 365.763,519.941 365.1,518.87C357.593,506.617 351.047,494.18 345.46,481.56C334.97,457.86 328.07,430.77 327.02,404.01C326.393,388.083 328.25,371.923 332.59,355.53C341.01,323.677 357.213,296.56 381.2,274.18C390.04,265.93 400.27,257.64 410.84,251.05C428.247,240.19 447.01,232.217 467.13,227.13C482.783,223.17 498.41,221.19 514.01,221.19C521.25,221.197 529.667,221.797 539.26,222.99C571.51,227.01 603.08,241.28 628.92,260.83C631.58,262.843 635.617,266.307 641.03,271.22C672.38,299.66 693.03,339.29 697.46,381.44C699.347,399.4 698.403,417.557 694.63,435.91C692.61,445.79 688.98,458.65 684.62,469.77C678.1,486.41 669.94,503.43 660.09,519.09C659.343,520.277 658.24,520.88 656.78,520.9C648.78,521.013 640.057,521.043 630.61,520.99C624.98,520.96 621.03,519.65 618.47,514.8C617.803,513.533 617.027,511.997 616.14,510.19C615.948,509.799 615.695,509.445 615.39,509.14C611.54,505.22 607.25,504.51 601.96,504.16C596.13,503.77 591.4,500.36 589.15,494.99C588.403,493.203 587.763,491.783 587.23,490.73C586.719,489.727 585.958,488.869 585.02,488.24C581.727,486.053 578.033,484.74 573.94,484.3C568.9,483.76 564.66,482.73 562.25,477.91C562.105,477.632 562.013,477.33 561.98,477.02C561.787,475.353 561.443,473.54 560.95,471.58C559.92,467.47 562.36,465.29 565.67,462.93C585.04,449.07 598.27,427.17 600.71,403.28C602.877,382.047 597.863,362.87 585.67,345.75C581.737,340.237 578.43,336.23 575.75,333.73C573.24,331.4 567.63,326.13 563.71,323.49C547.83,312.803 530.933,307.39 513.02,307.25C506.46,307.197 498.957,308.213 490.51,310.3C472.543,314.727 457.453,324.067 445.24,338.32C434.84,350.453 428.22,364.24 425.38,379.68C420.28,407.4 428.97,434.63 448.46,454.8C450.313,456.72 453.82,459.873 458.98,464.26C460.63,465.65 460.81,467.6 460.43,469.76C458.97,478.11 458.44,491.6 448.93,492.17C445.66,492.36 443.23,493.25 438.59,494.34C436.603,494.807 434.487,496.25 432.24,498.67C430.44,500.61 429.63,504.58 428.49,506.73C427.03,509.483 425.007,510.943 422.42,511.11C416.193,511.503 411.037,512.633 406.95,514.5C406.659,514.632 406.398,514.815 406.18,515.04C403.28,518.02 400.33,520.89 396.25,520.98C385.143,521.227 375.783,521.133 368.17,520.7Z" style="fill:white;fill-rule:nonzero;"/>
            </g>
            <g transform="matrix(4.166667,0,0,4.166667,0,0)">
                <path d="M518.13,440.27L518.13,607.83C518.13,613.007 513.927,617.21 508.75,617.21C503.573,617.21 499.37,613.007 499.37,607.83L499.37,440.27C499.37,435.093 503.573,430.89 508.75,430.89C513.927,430.89 518.13,435.093 518.13,440.27Z" style="fill:white;"/>
            </g>
            <g transform="matrix(4.166667,0,0,4.166667,0,0)">
                <path d="M548.15,471.8L548.15,583.02C548.15,588.081 544.041,592.19 538.98,592.19C533.919,592.19 529.81,588.081 529.81,583.02L529.81,471.8C529.81,466.739 533.919,462.63 538.98,462.63C544.041,462.63 548.15,466.739 548.15,471.8Z" style="fill:white;"/>
            </g>
            <g transform="matrix(4.16666,-0.007272,0.007272,4.16666,1992.625,2196.458333)">
                <path d="M9.28,-42.89L9.28,42.89C9.28,48.012 5.122,52.17 0,52.17C-5.122,52.17 -9.28,48.012 -9.28,42.89L-9.28,-42.89C-9.28,-48.012 -5.122,-52.17 0,-52.17C5.122,-52.17 9.28,-48.012 9.28,-42.89Z" style="fill:white;"/>
            </g>
            <g transform="matrix(4.16666,-0.007272,0.007272,4.16666,2370.791667,2203.291667)">
                <path d="M9.1,-27.11L9.1,27.11C9.1,32.132 5.022,36.21 0,36.21C-5.022,36.21 -9.1,32.132 -9.1,27.11L-9.1,-27.11C-9.1,-32.132 -5.022,-36.21 0,-36.21C5.022,-36.21 9.1,-32.132 9.1,-27.11Z" style="fill:white;"/>
            </g>
            <g transform="matrix(4.166667,0,0,4.166667,0,0)">
                <path d="M455.33,501.47C457.37,503.317 458.387,505.507 458.38,508.04C458.313,533.52 458.3,547.177 458.34,549.01C458.6,560.28 442.27,560.07 440.88,550.63C440.74,549.677 440.677,547.443 440.69,543.93C440.777,524.99 440.76,514.237 440.64,511.67C440.39,506.26 441.23,502.64 446.59,500.87C448.497,500.243 450.07,499.883 451.31,499.79C452.643,499.69 453.983,500.25 455.33,501.47Z" style="fill:white;fill-rule:nonzero;"/>
            </g>
            <g transform="matrix(4.166508,-0.036361,0.036361,4.166508,2492.041667,2204.416667)">
                <path d="M9.17,-6.88L9.17,6.88C9.17,11.941 5.061,16.05 0,16.05C-5.061,16.05 -9.17,11.941 -9.17,6.88L-9.17,-6.88C-9.17,-11.941 -5.061,-16.05 0,-16.05C5.061,-16.05 9.17,-11.941 9.17,-6.88Z" style="fill:white;"/>
            </g>
            <g transform="matrix(4.166438,0.043632,-0.043632,4.166438,1756.666667,2207.791667)">
                <path d="M9.43,-0.95L9.43,0.95C9.43,6.155 5.205,10.38 0,10.38C-5.205,10.38 -9.43,6.155 -9.43,0.95L-9.43,-0.95C-9.43,-6.155 -5.205,-10.38 0,-10.38C5.205,-10.38 9.43,-6.155 9.43,-0.95Z" style="fill:white;"/>
            </g>
            <g transform="matrix(4.166667,0,0,4.166667,0,0)">
                <path d="M647.94,537.79C648.434,538.053 648.623,538.676 648.36,539.17C643.38,548.383 636.717,559.453 628.37,572.38C623.35,580.167 615.57,591.727 605.03,607.06C586.343,634.26 568.097,659.677 550.29,683.31C538.99,698.31 526.35,714.86 513.44,728.87C512.966,729.375 512.165,729.406 511.66,728.94C511.34,728.647 509.047,726.223 504.78,721.67C502.5,719.237 500.36,716.743 498.36,714.19C462.04,667.89 431.94,625.37 401.8,579.97C392.54,566.023 384.113,552.16 376.52,538.38C376.482,538.313 376.463,538.237 376.463,538.16C376.463,537.914 376.664,537.711 376.91,537.71L396.89,537.76C398.413,537.767 399.899,538.196 401.18,539C402.94,540.093 405,541.99 407.36,544.69C407.733,545.117 409.027,545.84 411.24,546.86C414.21,548.23 418.96,548.04 420.99,548.27C427.99,549.08 429.14,552.71 431.31,558.8C431.442,559.164 431.635,559.502 431.88,559.8C436.79,565.66 442.07,566.24 450.04,567C450.398,567.033 450.752,567.114 451.09,567.24C457.12,569.49 458.08,573.27 459.79,579.2C460.877,582.947 463.28,585.55 467,587.01C470.11,588.23 471.81,588.71 475.11,588.97C480.34,589.37 485.93,593.23 486.68,598.74C487.9,607.73 486.32,617.9 494.29,623.23C503.54,629.41 516.82,629.09 525.75,622.25C528.85,619.87 530.43,613.8 531.24,610.03C532.38,604.72 534.63,601.7 539.46,600.91C546.14,599.83 554.87,600.67 559.29,593.29C562.92,587.23 559.71,576.89 569.63,575.15C577.21,573.81 583.2,573.43 587.01,566.51C589.86,561.35 589.75,556.38 596.73,554.95C599.097,554.463 602.843,553.92 607.97,553.32C609.563,553.133 611.743,552.143 614.51,550.35C616.5,549.06 618.26,544.88 619.86,542.63C622.68,538.65 625.5,537.86 630.58,537.78C640.147,537.633 645.557,537.573 646.81,537.6C647.33,537.607 647.707,537.67 647.94,537.79Z" style="fill:white;fill-rule:nonzero;"/>
            </g>
            <g transform="matrix(4.166667,0,0,4.166667,0,0)">
                <path d="M485.88,734.17L485.89,734.2C485.913,734.265 485.924,734.333 485.924,734.401C485.924,734.692 485.716,734.945 485.43,735C480.603,735.933 476.277,738.15 472.45,741.65C471.662,742.373 471.479,743.557 472.01,744.49C473.463,747.01 475.907,748.827 479.34,749.94C485.087,751.807 491.64,753.007 499,753.54C509.573,754.307 520.447,754.007 531.62,752.64C536.68,752.027 541.373,750.953 545.7,749.42C547.86,748.66 549.763,747.367 551.41,745.54C552.009,744.881 552.111,743.898 551.66,743.12L550.41,740.94C550.344,740.834 550.263,740.743 550.17,740.67C546.623,737.903 542.53,736.01 537.89,734.99C537.581,734.921 537.372,734.625 537.41,734.31L537.41,734.28C537.456,733.936 537.763,733.681 538.11,733.7C550.537,734.367 561.417,735.8 570.75,738C575.1,739.03 579.18,740.63 583,742.75C584.373,743.517 585.677,744.79 586.91,746.57C587.107,746.856 587.172,747.213 587.09,747.55C586.383,750.417 584.733,752.55 582.14,753.95C574.573,758.03 565.71,760.903 555.55,762.57C543.67,764.517 531.987,765.64 520.5,765.94C509.573,766.227 497.587,765.847 484.54,764.8C478.24,764.3 470.993,763.26 462.8,761.68C455.16,760.213 448.617,758.193 443.17,755.62C440.49,754.34 437.78,752.51 436.42,750.26C432.66,744.07 447.06,739.26 450.77,738.27C455.65,736.963 461.07,735.917 467.03,735.13C468.87,734.89 474.88,734.39 485.06,733.63C485.423,733.601 485.763,733.825 485.88,734.17Z" style="fill:white;fill-rule:nonzero;"/>
            </g>
        </g>
    </g>
</svg>
